<?xml version="1.0" encoding="UTF-8"?>
<svg width="32px" height="32px" viewBox="0 0 32 32" version="1.1" xmlns="http://www.w3.org/2000/svg" xmlns:xlink="http://www.w3.org/1999/xlink">
    <g stroke="none" stroke-width="1" fill="none" fill-rule="evenodd">
        <g id="Group-41">
            <path d="M12.5,12 L19.5,12 C19.7761424,12 20,12.2238576 20,12.5 L20,40 C20,42.209139 18.209139,44 16,44 C13.790861,44 12,42.209139 12,40 L12,12.5 C12,12.2238576 12.2238576,12 12.5,12 Z" id="Rectangle-Copy-59" fill="#6c86e2" transform="translate(16.000000, 28.000000) rotate(-270.000000) translate(-16.000000, -28.000000) "></path>
            <path d="M10.9350288,2.36810133 L17.9350288,2.36810133 C18.2111712,2.36810133 18.4350288,2.59195895 18.4350288,2.86810133 L18.4350288,31.8681013 C18.4350288,32.1442437 18.2111712,32.3681013 17.9350288,32.3681013 L10.9350288,32.3681013 C10.6588865,32.3681013 10.4350288,32.1442437 10.4350288,31.8681013 L10.4350288,2.86810133 C10.4350288,2.59195895 10.6588865,2.36810133 10.9350288,2.36810133 Z" id="Rectangle-Copy-60" fill="#d8ddf2" transform="translate(14.435029, 17.368101) rotate(-315.000000) translate(-14.435029, -17.368101) "></path>
            <path d="M0.5,0 L7.5,0 C7.77614237,-5.07265313e-17 8,0.223857625 8,0.5 L8,28 C8,30.209139 6.209139,32 4,32 C1.790861,32 2.705415e-16,30.209139 0,28 L0,0.5 C-3.38176876e-17,0.223857625 0.223857625,5.07265313e-17 0.5,0 Z" id="Rectangle-Copy-61" fill="#314692"></path>
            <rect id="Rectangle-Copy-62" fill="#d8ddf2" x="2" y="26" width="4" height="4" rx="2"></rect>
        </g>
    </g>
</svg>
